<mxfile host="app.diagrams.net" modified="2024-04-14T07:29:42.877Z" agent="Mozilla/5.0 (Windows NT 10.0; Win64; x64) AppleWebKit/537.36 (KHTML, like Gecko) Chrome/123.0.0.0 Safari/537.36" etag="Xp2iyclL2On6N6FfTg-S" version="24.2.5" type="device">
  <diagram name="Page-1" id="CjYNM0lrnZYXengvFm2r">
    <mxGraphModel dx="1050" dy="557" grid="1" gridSize="10" guides="1" tooltips="1" connect="1" arrows="1" fold="1" page="1" pageScale="1" pageWidth="827" pageHeight="1169" math="0" shadow="0">
      <root>
        <mxCell id="0" />
        <mxCell id="1" parent="0" />
        <mxCell id="-HvLyJGkyuaon6e4UzcY-10" value="" style="group;fillColor=#E6E6E6;movable=0;resizable=0;rotatable=0;deletable=0;editable=0;locked=1;connectable=0;" vertex="1" connectable="0" parent="1">
          <mxGeometry x="110" y="140" width="510" height="120" as="geometry" />
        </mxCell>
        <mxCell id="-HvLyJGkyuaon6e4UzcY-1" value="" style="rounded=0;whiteSpace=wrap;html=1;fillColor=#E6E6E6;" vertex="1" parent="-HvLyJGkyuaon6e4UzcY-10">
          <mxGeometry width="510" height="120" as="geometry" />
        </mxCell>
        <mxCell id="-HvLyJGkyuaon6e4UzcY-2" value="Pre-Processing Pipeline" style="text;html=1;align=center;verticalAlign=middle;whiteSpace=wrap;rounded=0;" vertex="1" parent="-HvLyJGkyuaon6e4UzcY-10">
          <mxGeometry x="-10" width="170" height="30" as="geometry" />
        </mxCell>
        <mxCell id="-HvLyJGkyuaon6e4UzcY-3" value="Convert Audio" style="rounded=0;whiteSpace=wrap;html=1;" vertex="1" parent="-HvLyJGkyuaon6e4UzcY-10">
          <mxGeometry x="10" y="40" width="100" height="50" as="geometry" />
        </mxCell>
        <mxCell id="-HvLyJGkyuaon6e4UzcY-4" value="Noise Reduction" style="rounded=0;whiteSpace=wrap;html=1;" vertex="1" parent="-HvLyJGkyuaon6e4UzcY-10">
          <mxGeometry x="130" y="40" width="100" height="50" as="geometry" />
        </mxCell>
        <mxCell id="-HvLyJGkyuaon6e4UzcY-5" value="Trim Silence" style="rounded=0;whiteSpace=wrap;html=1;" vertex="1" parent="-HvLyJGkyuaon6e4UzcY-10">
          <mxGeometry x="260" y="40" width="100" height="50" as="geometry" />
        </mxCell>
        <mxCell id="-HvLyJGkyuaon6e4UzcY-6" value="Pad Audio" style="rounded=0;whiteSpace=wrap;html=1;" vertex="1" parent="-HvLyJGkyuaon6e4UzcY-10">
          <mxGeometry x="390" y="40" width="100" height="50" as="geometry" />
        </mxCell>
        <mxCell id="-HvLyJGkyuaon6e4UzcY-7" style="edgeStyle=orthogonalEdgeStyle;rounded=0;orthogonalLoop=1;jettySize=auto;html=1;exitX=1;exitY=0.5;exitDx=0;exitDy=0;entryX=0;entryY=0.5;entryDx=0;entryDy=0;" edge="1" parent="-HvLyJGkyuaon6e4UzcY-10" source="-HvLyJGkyuaon6e4UzcY-3" target="-HvLyJGkyuaon6e4UzcY-4">
          <mxGeometry relative="1" as="geometry" />
        </mxCell>
        <mxCell id="-HvLyJGkyuaon6e4UzcY-8" style="edgeStyle=orthogonalEdgeStyle;rounded=0;orthogonalLoop=1;jettySize=auto;html=1;exitX=1;exitY=0.5;exitDx=0;exitDy=0;entryX=0;entryY=0.5;entryDx=0;entryDy=0;" edge="1" parent="-HvLyJGkyuaon6e4UzcY-10" source="-HvLyJGkyuaon6e4UzcY-4" target="-HvLyJGkyuaon6e4UzcY-5">
          <mxGeometry relative="1" as="geometry" />
        </mxCell>
        <mxCell id="-HvLyJGkyuaon6e4UzcY-9" style="edgeStyle=orthogonalEdgeStyle;rounded=0;orthogonalLoop=1;jettySize=auto;html=1;exitX=1;exitY=0.5;exitDx=0;exitDy=0;entryX=0;entryY=0.5;entryDx=0;entryDy=0;" edge="1" parent="-HvLyJGkyuaon6e4UzcY-10" source="-HvLyJGkyuaon6e4UzcY-5" target="-HvLyJGkyuaon6e4UzcY-6">
          <mxGeometry relative="1" as="geometry" />
        </mxCell>
        <mxCell id="-HvLyJGkyuaon6e4UzcY-13" value="Convert to Spectrogram" style="rounded=0;whiteSpace=wrap;html=1;" vertex="1" parent="1">
          <mxGeometry x="670" y="175" width="120" height="60" as="geometry" />
        </mxCell>
        <mxCell id="-HvLyJGkyuaon6e4UzcY-15" value="" style="rounded=0;whiteSpace=wrap;html=1;fillColor=#CCCCCC;" vertex="1" parent="1">
          <mxGeometry x="290" y="320" width="500" height="110" as="geometry" />
        </mxCell>
        <mxCell id="-HvLyJGkyuaon6e4UzcY-16" value="CNN Model" style="text;html=1;align=center;verticalAlign=middle;whiteSpace=wrap;rounded=0;" vertex="1" parent="1">
          <mxGeometry x="290" y="320" width="80" height="30" as="geometry" />
        </mxCell>
        <mxCell id="-HvLyJGkyuaon6e4UzcY-18" value="Conv1 Layer" style="rounded=0;whiteSpace=wrap;html=1;" vertex="1" parent="1">
          <mxGeometry x="660" y="360" width="100" height="50" as="geometry" />
        </mxCell>
        <mxCell id="-HvLyJGkyuaon6e4UzcY-29" style="edgeStyle=orthogonalEdgeStyle;rounded=0;orthogonalLoop=1;jettySize=auto;html=1;exitX=0;exitY=0.5;exitDx=0;exitDy=0;entryX=1;entryY=0.5;entryDx=0;entryDy=0;" edge="1" parent="1" source="-HvLyJGkyuaon6e4UzcY-19" target="-HvLyJGkyuaon6e4UzcY-21">
          <mxGeometry relative="1" as="geometry" />
        </mxCell>
        <mxCell id="-HvLyJGkyuaon6e4UzcY-19" value="Conv2 Layer" style="rounded=0;whiteSpace=wrap;html=1;" vertex="1" parent="1">
          <mxGeometry x="549" y="360" width="100" height="50" as="geometry" />
        </mxCell>
        <mxCell id="-HvLyJGkyuaon6e4UzcY-30" style="edgeStyle=orthogonalEdgeStyle;rounded=0;orthogonalLoop=1;jettySize=auto;html=1;exitX=0;exitY=0.5;exitDx=0;exitDy=0;entryX=1;entryY=0.5;entryDx=0;entryDy=0;" edge="1" parent="1" source="-HvLyJGkyuaon6e4UzcY-21" target="-HvLyJGkyuaon6e4UzcY-22">
          <mxGeometry relative="1" as="geometry" />
        </mxCell>
        <mxCell id="-HvLyJGkyuaon6e4UzcY-21" value="Conv3 Layer" style="rounded=0;whiteSpace=wrap;html=1;" vertex="1" parent="1">
          <mxGeometry x="430" y="360" width="100" height="50" as="geometry" />
        </mxCell>
        <mxCell id="-HvLyJGkyuaon6e4UzcY-32" style="edgeStyle=orthogonalEdgeStyle;rounded=0;orthogonalLoop=1;jettySize=auto;html=1;exitX=0;exitY=0.5;exitDx=0;exitDy=0;" edge="1" parent="1" source="-HvLyJGkyuaon6e4UzcY-22" target="-HvLyJGkyuaon6e4UzcY-24">
          <mxGeometry relative="1" as="geometry" />
        </mxCell>
        <mxCell id="-HvLyJGkyuaon6e4UzcY-22" value="FCC (Flattened)" style="rounded=0;whiteSpace=wrap;html=1;" vertex="1" parent="1">
          <mxGeometry x="315" y="360" width="100" height="50" as="geometry" />
        </mxCell>
        <mxCell id="-HvLyJGkyuaon6e4UzcY-24" value="&lt;b&gt;Output (Covid or Healthy)&lt;/b&gt;" style="text;html=1;align=center;verticalAlign=middle;whiteSpace=wrap;rounded=0;" vertex="1" parent="1">
          <mxGeometry x="150" y="370" width="90" height="30" as="geometry" />
        </mxCell>
        <mxCell id="-HvLyJGkyuaon6e4UzcY-26" style="edgeStyle=orthogonalEdgeStyle;rounded=0;orthogonalLoop=1;jettySize=auto;html=1;exitX=1;exitY=0.5;exitDx=0;exitDy=0;entryX=0;entryY=0.5;entryDx=0;entryDy=0;" edge="1" parent="1" source="-HvLyJGkyuaon6e4UzcY-25" target="-HvLyJGkyuaon6e4UzcY-1">
          <mxGeometry relative="1" as="geometry" />
        </mxCell>
        <mxCell id="-HvLyJGkyuaon6e4UzcY-25" value="Input Audio" style="text;html=1;align=center;verticalAlign=middle;whiteSpace=wrap;rounded=0;" vertex="1" parent="1">
          <mxGeometry x="10" y="185" width="60" height="30" as="geometry" />
        </mxCell>
        <mxCell id="-HvLyJGkyuaon6e4UzcY-27" style="edgeStyle=orthogonalEdgeStyle;rounded=0;orthogonalLoop=1;jettySize=auto;html=1;exitX=0.5;exitY=1;exitDx=0;exitDy=0;entryX=0.88;entryY=-0.02;entryDx=0;entryDy=0;entryPerimeter=0;" edge="1" parent="1" source="-HvLyJGkyuaon6e4UzcY-13" target="-HvLyJGkyuaon6e4UzcY-15">
          <mxGeometry relative="1" as="geometry" />
        </mxCell>
        <mxCell id="-HvLyJGkyuaon6e4UzcY-28" value="" style="endArrow=classic;html=1;rounded=0;exitX=0;exitY=0.5;exitDx=0;exitDy=0;entryX=1;entryY=0.5;entryDx=0;entryDy=0;" edge="1" parent="1" source="-HvLyJGkyuaon6e4UzcY-18" target="-HvLyJGkyuaon6e4UzcY-19">
          <mxGeometry width="50" height="50" relative="1" as="geometry">
            <mxPoint x="390" y="320" as="sourcePoint" />
            <mxPoint x="440" y="270" as="targetPoint" />
          </mxGeometry>
        </mxCell>
        <mxCell id="-HvLyJGkyuaon6e4UzcY-12" style="edgeStyle=orthogonalEdgeStyle;rounded=0;orthogonalLoop=1;jettySize=auto;html=1;exitX=1;exitY=0.5;exitDx=0;exitDy=0;entryX=0;entryY=0.5;entryDx=0;entryDy=0;" edge="1" parent="1" source="-HvLyJGkyuaon6e4UzcY-6" target="-HvLyJGkyuaon6e4UzcY-13">
          <mxGeometry relative="1" as="geometry">
            <mxPoint x="620" y="205" as="targetPoint" />
          </mxGeometry>
        </mxCell>
      </root>
    </mxGraphModel>
  </diagram>
</mxfile>
